<svg id="Layer_1" data-name="Layer 1" xmlns="http://www.w3.org/2000/svg" viewBox="0 0 100 35"><defs><style>.cls-1,.cls-3{fill:#fff;}.cls-2{fill:#231f20;}.cls-3{font-size:19.55773px;font-family:MyriadPro-Regular, Myriad Pro;}.cls-4{letter-spacing:-0.01099em;}.cls-5{letter-spacing:-0.00502em;}.cls-6{letter-spacing:0.00005em;}.cls-7{letter-spacing:-0.003em;}</style></defs><rect class="cls-1" x="0.5" y="0.5" width="99" height="34" rx="13.60156"/><path class="cls-2" d="M85.89832,8.5A13.11651,13.11651,0,0,1,99,21.60168v6.79664A13.11651,13.11651,0,0,1,85.89832,41.5H14.10168A13.11651,13.11651,0,0,1,1,28.39832V21.60168A13.11651,13.11651,0,0,1,14.10168,8.5H85.89832m0-1H14.10168A14.10168,14.10168,0,0,0,0,21.60168v6.79664A14.10168,14.10168,0,0,0,14.10168,42.5H85.89832A14.10168,14.10168,0,0,0,100,28.39832V21.60168A14.10168,14.10168,0,0,0,85.89832,7.5Z" transform="translate(0 -7.5)"/><rect class="cls-2" x="2.5" y="2.6761" width="95" height="30" rx="12.8239"/><text class="cls-3" transform="translate(8.36227 22.69111)"><tspan class="cls-4">s</tspan><tspan x="7.52979" y="0">.dp</tspan><tspan class="cls-5" x="33.73682" y="0">r</tspan><tspan class="cls-6" x="40.03418" y="0">as</tspan><tspan class="cls-7" x="57.20557" y="0">t</tspan><tspan x="63.62061" y="0">.id</tspan></text></svg>